<svg xmlns="http://www.w3.org/2000/svg" xmlns:xlink="http://www.w3.org/1999/xlink" width="51" height="56" viewBox="0 0 51 56">
  <defs>
    <clipPath id="clip-services1">
      <rect width="51" height="56"/>
    </clipPath>
  </defs>
  <g id="services1" clip-path="url(#clip-services1)">
    <g id="services1-2" data-name="services1" transform="translate(3 4)">
      <g id="Group_151" data-name="Group 151">
        <path id="Path_251" data-name="Path 251" d="M54.049,20.311,33.467.439a1.544,1.544,0,0,0-2.155,0L10.73,20.31a1.552,1.552,0,0,0,1.078,2.668h2.735V44.7a1.552,1.552,0,0,0,1.552,1.552H26.958A1.552,1.552,0,0,0,28.509,44.7V32.289h7.759V44.7a1.552,1.552,0,0,0,1.552,1.552H48.683A1.552,1.552,0,0,0,50.235,44.7V22.978H52.97a1.552,1.552,0,0,0,1.079-2.668Zm-3.814,1.116a1.552,1.552,0,0,0-1.552,1.552V44.7H37.82V32.289a1.552,1.552,0,0,0-1.552-1.552H28.509a1.552,1.552,0,0,0-1.552,1.552V44.7H16.095V22.978a1.552,1.552,0,0,0-1.552-1.552H11.808L32.389,1.555,52.978,21.427Z" transform="translate(-10.256 -0.001)" fill="#096e65"/>
      </g>
    </g>
  </g>
</svg>
