<svg xmlns="http://www.w3.org/2000/svg" xmlns:xlink="http://www.w3.org/1999/xlink" width="55" height="56" viewBox="0 0 55 56">
  <defs>
    <clipPath id="clip-services2">
      <rect width="55" height="56"/>
    </clipPath>
  </defs>
  <g id="services2" clip-path="url(#clip-services2)">
    <g id="services2-2" data-name="services2" transform="translate(2.299 12.505)">
      <path id="Path_243" data-name="Path 243" d="M27.191,17.891A149.367,149.367,0,0,1,2.638,15.858a.72.72,0,0,1,.2-1.425,147.781,147.781,0,0,0,48.7,0,.72.72,0,0,1,.236,1.42,149.462,149.462,0,0,1-24.585,2.039Z" transform="translate(-2.004 -14.422)" fill="#096e65"/>
      <path id="Path_244" data-name="Path 244" d="M13.156,28.7a.72.72,0,0,1-.666-.445l-4.945-12A.721.721,0,0,1,8.876,15.7l4.28,10.388,3.857-9.372a.72.72,0,0,1,1.331.548l-4.523,10.99a.72.72,0,0,1-.666.446Z" transform="translate(-3.539 -14.656)" fill="#096e65"/>
      <path id="Path_245" data-name="Path 245" d="M35.012,29.234a.72.72,0,0,1-.666-.445L29.965,18.157a.72.72,0,1,1,1.331-.548l3.716,9.018,3.716-9.018a.72.72,0,0,1,1.331.548L35.678,28.788A.72.72,0,0,1,35.012,29.234Z" transform="translate(-9.825 -15.191)" fill="#096e65"/>
      <path id="Path_246" data-name="Path 246" d="M56.594,28.7a.72.72,0,0,1-.666-.445L51.406,17.266a.72.72,0,1,1,1.331-.548l3.857,9.372,4.28-10.39a.72.72,0,1,1,1.331.548l-4.945,12a.72.72,0,0,1-.666.452Z" transform="translate(-15.837 -14.656)" fill="#096e65"/>
      <path id="Path_247" data-name="Path 247" d="M27.615,42.835A72.936,72.936,0,0,1,2.472,38.181a.72.72,0,0,1,.5-1.351c16.634,6.083,32.927,6.083,48.424.006a.72.72,0,1,1,.525,1.34,66.1,66.1,0,0,1-24.3,4.66Z" transform="translate(-2 -20.693)" fill="#096e65"/>
      <path id="Path_248" data-name="Path 248" d="M13.15,53.651a.72.72,0,0,1-.581-.3L9.475,49.118,4.714,51.344a.72.72,0,0,1-1-.83L6.6,39.243A.722.722,0,0,1,8,39.6L5.485,49.394,9.4,47.564a.72.72,0,0,1,.886.227l2.547,3.484,2.529-9.881a.72.72,0,0,1,1.4.36L13.848,53.11a.72.72,0,0,1-.7.541Z" transform="translate(-2.473 -21.23)" fill="#096e65"/>
      <path id="Path_249" data-name="Path 249" d="M30.446,54.918a.72.72,0,0,1-.72-.72V43.678a.72.72,0,1,1,1.439,0v8.989l3.322-2.753a.72.72,0,0,1,.914,0l3.356,2.735V43.737a.72.72,0,1,1,1.439,0V54.161a.72.72,0,0,1-1.174.558L34.95,51.4,30.9,54.752a.72.72,0,0,1-.459.166Z" transform="translate(-9.774 -22.423)" fill="#096e65"/>
      <path id="Path_250" data-name="Path 250" d="M55.761,53.679a.72.72,0,0,1-.7-.541L52.185,41.89a.72.72,0,1,1,1.4-.36l2.5,9.77,2.547-3.484a.72.72,0,0,1,.886-.227l3.913,1.831-2.49-9.72a.72.72,0,1,1,1.4-.36L65.2,50.54a.72.72,0,0,1-1,.83l-4.76-2.226-3.094,4.238a.72.72,0,0,1-.585.3Z" transform="translate(-16.064 -21.258)" fill="#096e65"/>
    </g>
  </g>
</svg>
